<?xml version="1.0" encoding="utf-8"?>
<svg width="370" height="80" viewBox="0 0 370 80" fill="none" xmlns="http://www.w3.org/2000/svg">
  <defs>
    <clipPath id="clip_path_1">
      <rect width="260" height="70" />
    </clipPath>
  </defs>
  <g id="SingleElement">
    <path id="Logo" d="M2.70966 11.5458C12.0372 -1.64722 40.3387 0.0736694 40.3387 0.0736694C40.3387 0.0736694 23.4142 3.16922 15.5532 12.1542C6.97174 21.3075 19.3196 30.0116 22.5418 31.1773C36.063 36.5327 45.7553 32.7189 51.6758 27.3192C51.3786 35.4878 35.3362 64.5789 5.44684 78.6129C14.376 69.317 22.8969 59.2052 22.8141 47.2505C18.2044 43.4528 11.1289 37.667 11.1289 37.667C11.1289 37.667 -6.6178 24.7388 2.70966 11.5458ZM49.3929 9.02017C49.3929 5.69904 52.0734 3.00671 55.3799 3.00671C58.6864 3.00671 61.3669 5.69904 61.3669 9.02017C61.3669 12.3413 58.6864 15.0336 55.3799 15.0336C52.0734 15.0336 49.3929 12.3413 49.3929 9.02017ZM36.6705 8.26849C30.6774 8.26849 25.819 13.1483 25.819 19.1679C25.819 25.1874 30.6774 30.0673 36.6705 30.0673C42.6636 30.0673 47.5219 25.1874 47.5219 19.1679C47.5219 13.1483 42.6636 8.26849 36.6705 8.26849ZM56.1285 60.6985C57.038 53.6531 46.3694 47.7804 46.3694 47.7804C46.3694 47.7804 49.3027 42.0291 51.6232 36.8637C64.7341 44.9866 67.9547 53.6103 68.1024 53.9333C72.7317 66.8108 68.4714 72.9775 59.8702 76.1081C48.552 80.4893 26.0786 80.0735 17.0587 79.9066C15.6021 79.8796 14.4963 79.8592 13.845 79.8665C41.7428 74.1081 53.5068 67.7903 56.1285 60.6985Z" fill="#016F17" fill-rule="evenodd" />
    <path d="M5.68 48.16Q4.24 48.16 3.08 46.96Q1.92 45.76 1.92 43Q1.92 40.76 2.44 38.6Q2.96 36.44 3.62 34.22Q4.28 32 4.74 29.62Q5.2 27.24 5.04 24.6Q3.96 24.76 2.92 25.16Q1.88 25.56 0.88 26.32Q0.88 23.8 1.32 22.22Q1.76 20.64 3.04 19.92Q4.32 19.2 6.84 19.2Q8.2 19.2 9.88 19.4Q11.56 19.6 13.34 19.8Q15.12 20 16.72 20Q18.28 20 19.52 19.7Q20.76 19.4 21.44 18.6Q22.24 19.12 22.66 20.02Q23.08 20.92 23.08 21.96Q23.08 23.04 22.58 24.06Q22.08 25.08 21.04 25.74Q20 26.4 18.32 26.4Q16.56 26.4 14.48 25.84Q12.4 25.28 10.2 24.88Q10.4 25.76 10.5 26.64Q10.6 27.52 10.6 28.44Q10.6 29.44 10.52 30.42Q10.44 31.4 10.28 32.44Q11.12 32 12.32 31.64Q13.52 31.28 14.78 31.04Q16.04 30.8 17.04 30.8Q17.68 30.8 18.16 30.92Q18.56 31.76 18.56 32.96Q18.56 34.88 17.6 36.88L17.32 37Q15.84 36.2 13.9 35.76Q11.96 35.32 9.84 35.16Q9.44 37.44 9.08 39.8Q8.72 42.16 8.72 44.64Q8.72 45.16 8.74 45.72Q8.76 46.28 8.8 46.84Q7.48 48.16 5.68 48.16ZM29.44 48.28Q26.44 48.28 24.48 47.08Q22.52 45.88 21.58 43.9Q20.64 41.92 20.64 39.68Q20.64 37.56 21.42 35.44Q22.2 33.32 23.7 31.58Q25.2 29.84 27.36 28.78Q29.52 27.72 32.32 27.72Q35.32 27.72 37.26 28.94Q39.2 30.16 40.14 32.16Q41.08 34.16 41.08 36.44Q41.08 38.52 40.32 40.62Q39.56 42.72 38.06 44.46Q36.56 46.2 34.4 47.24Q32.24 48.28 29.44 48.28ZM30.52 44.88Q31.6 44.88 32.32 43.76Q33.04 42.64 33.4 40.9Q33.76 39.16 33.76 37.36Q33.76 35.76 33.46 34.34Q33.16 32.92 32.56 32.02Q31.96 31.12 31 31.12Q29.96 31.12 29.22 32.24Q28.48 33.36 28.12 35.08Q27.76 36.8 27.76 38.64Q27.76 40.24 28.06 41.66Q28.36 43.08 28.96 43.98Q29.56 44.88 30.52 44.88ZM52.12 48.28Q49.12 48.28 47.16 47.08Q45.2 45.88 44.26 43.9Q43.32 41.92 43.32 39.68Q43.32 37.56 44.1 35.44Q44.88 33.32 46.38 31.58Q47.88 29.84 50.04 28.78Q52.2 27.72 55 27.72Q58 27.72 59.94 28.94Q61.88 30.16 62.82 32.16Q63.76 34.16 63.76 36.44Q63.76 38.52 63 40.62Q62.24 42.72 60.74 44.46Q59.24 46.2 57.08 47.24Q54.92 48.28 52.12 48.28ZM53.2 44.88Q54.28 44.88 55 43.76Q55.72 42.64 56.08 40.9Q56.44 39.16 56.44 37.36Q56.44 35.76 56.14 34.34Q55.84 32.92 55.24 32.02Q54.64 31.12 53.68 31.12Q52.64 31.12 51.9 32.24Q51.16 33.36 50.8 35.08Q50.44 36.8 50.44 38.64Q50.44 40.24 50.74 41.66Q51.04 43.08 51.64 43.98Q52.24 44.88 53.2 44.88ZM71.68 48.16Q70.24 48.16 68.98 47.16Q67.72 46.16 66.94 44.24Q66.16 42.32 66.16 39.6Q66.16 36.8 66.96 34.6Q67.76 32.4 69.06 30.86Q70.36 29.32 71.9 28.52Q73.44 27.72 74.92 27.72Q76.56 27.72 77.84 28.74Q79.12 29.76 79.6 31.92Q79.96 29.92 80.22 28.1Q80.48 26.28 80.48 24.88Q80.48 23.04 80 22.2L80 21.96Q80.92 20.92 82.02 20.42Q83.12 19.92 84.12 19.92Q85.44 19.92 86.36 20.74Q87.28 21.56 87.28 23.08Q87.28 23.92 87 25.56Q86.72 27.2 86.32 29.3Q85.92 31.4 85.5 33.62Q85.08 35.84 84.8 37.86Q84.52 39.88 84.52 41.36Q84.52 42.6 84.78 43.34Q85.04 44.08 85.64 44.08Q86.08 44.08 86.54 43.78Q87 43.48 87.16 43.08L87.44 43.28Q87.44 44.6 86.6 45.7Q85.76 46.8 84.48 47.48Q83.2 48.16 81.84 48.16Q80.36 48.16 79.5 47.34Q78.64 46.52 78.28 45.24Q77.92 43.96 77.88 42.6Q76.64 45.48 74.98 46.82Q73.32 48.16 71.68 48.16ZM74.36 43.08Q75.4 43.08 76.68 41.2Q77.96 39.32 78.92 35.72L79.16 34.48Q78.52 33 77.78 32.38Q77.04 31.76 76.36 31.76Q75.36 31.76 74.48 32.86Q73.6 33.96 73.06 35.66Q72.52 37.36 72.52 39.24Q72.52 41.04 73.04 42.06Q73.56 43.08 74.36 43.08ZM91.76 48.16Q90.52 48.16 89.56 47.56Q88.6 46.96 88.6 45.56Q88.6 43.36 89.54 41.08Q90.48 38.8 91.86 36.58Q93.24 34.36 94.62 32.24Q96 30.12 96.94 28.2Q97.88 26.28 97.88 24.64Q97.88 23.32 97.24 23.32Q96.8 23.32 96.24 24.02Q95.68 24.72 95.44 26.08L95 26Q95 23.72 96.08 22.14Q97.16 20.56 98.84 19.76Q100.52 18.96 102.28 18.96Q104.32 18.96 106.1 20.12Q107.88 21.28 108.56 23.8Q108.84 24.8 108.98 26.04Q109.12 27.28 109.16 28.18Q109.2 29.08 109.2 29.08Q109.28 32.32 109.34 34.56Q109.4 36.8 109.56 38.32Q109.72 39.84 110 40.88Q110.28 41.88 110.74 42.5Q111.2 43.12 111.92 43.12Q112.6 43.12 113.1 42.72Q113.6 42.32 113.76 41.96L114.04 42.16Q114.04 44 113.32 45.36Q112.6 46.72 111.44 47.44Q110.28 48.16 109 48.16Q107.76 48.16 106.58 47.42Q105.4 46.68 104.52 45.12Q103.64 43.56 103.36 41.08Q102.12 41 100.94 40.94Q99.76 40.88 98.8 40.88Q98.16 40.88 97.58 40.9Q97 40.92 96.44 40.96Q96.08 42.2 95.86 43.46Q95.64 44.72 95.64 45.92Q95.64 46.84 94.44 47.5Q93.24 48.16 91.76 48.16ZM97.76 37.24Q98.76 36.96 99.88 36.86Q101 36.76 102.28 36.76L103.16 36.76Q103.08 33.8 102.94 30.68Q102.8 27.56 101.92 24.88Q101.6 27.76 100.32 30.92Q99.04 34.08 97.76 37.24ZM122.12 48.36Q119.64 48.36 118 47.68Q116.36 47 115.56 45.94Q114.76 44.88 114.76 43.8Q114.76 42.28 116.12 41.1Q117.48 39.92 119.8 39.92Q119.8 41.96 120.32 43.18Q120.84 44.4 121.66 44.92Q122.48 45.44 123.24 45.44Q124.16 45.44 124.78 44.9Q125.4 44.36 125.4 43.56Q125.4 42.44 124.24 41.6Q123.08 40.76 121.24 39.72Q120.32 39.16 119.24 38.42Q118.16 37.68 117.4 36.62Q116.64 35.56 116.64 34.08Q116.64 32.52 117.54 31.32Q118.44 30.12 119.92 29.3Q121.4 28.48 123.12 28.06Q124.84 27.64 126.48 27.64Q129.56 27.64 131.12 28.88Q132.68 30.12 132.68 31.52Q132.68 32.72 131.48 33.68Q130.28 34.64 127.8 34.64Q127.84 32.6 126.96 31.66Q126.08 30.72 125.08 30.72Q124.36 30.72 123.88 31.16Q123.4 31.6 123.4 32.44Q123.4 33.4 124.02 34.1Q124.64 34.8 125.58 35.34Q126.52 35.88 127.52 36.36Q128.88 37 130.08 37.72Q131.28 38.44 132.04 39.36Q132.8 40.28 132.8 41.6Q132.8 43.4 131.34 44.94Q129.88 46.48 127.44 47.42Q125 48.36 122.12 48.36ZM141.92 48.36Q139.44 48.36 137.8 47.68Q136.16 47 135.36 45.94Q134.56 44.88 134.56 43.8Q134.56 42.28 135.92 41.1Q137.28 39.92 139.6 39.92Q139.6 41.96 140.12 43.18Q140.64 44.4 141.46 44.92Q142.28 45.44 143.04 45.44Q143.96 45.44 144.58 44.9Q145.2 44.36 145.2 43.56Q145.2 42.44 144.04 41.6Q142.88 40.76 141.04 39.72Q140.12 39.16 139.04 38.42Q137.96 37.68 137.2 36.62Q136.44 35.56 136.44 34.08Q136.44 32.52 137.34 31.32Q138.24 30.12 139.72 29.3Q141.2 28.48 142.92 28.06Q144.64 27.64 146.28 27.64Q149.36 27.64 150.92 28.88Q152.48 30.12 152.48 31.52Q152.48 32.72 151.28 33.68Q150.08 34.64 147.6 34.64Q147.64 32.6 146.76 31.66Q145.88 30.72 144.88 30.72Q144.16 30.72 143.68 31.16Q143.2 31.6 143.2 32.44Q143.2 33.4 143.82 34.1Q144.44 34.8 145.38 35.34Q146.32 35.88 147.32 36.36Q148.68 37 149.88 37.72Q151.08 38.44 151.84 39.36Q152.6 40.28 152.6 41.6Q152.6 43.4 151.14 44.94Q149.68 46.48 147.24 47.42Q144.8 48.36 141.92 48.36ZM162.32 26.6Q160.72 26.6 159.7 25.62Q158.68 24.64 158.68 23.16Q158.68 21.56 159.88 20.4Q161.08 19.24 162.8 19.24Q164.4 19.24 165.42 20.24Q166.44 21.24 166.44 22.72Q166.44 24.32 165.24 25.46Q164.04 26.6 162.32 26.6ZM159.52 48.16Q157.96 48.16 156.72 47.06Q155.48 45.96 155.48 43.52Q155.48 42.12 155.86 40.9Q156.24 39.68 156.74 38.52Q157.24 37.36 157.62 36.26Q158 35.16 158 34.08Q158 33.12 157.68 32.7Q157.36 32.28 156.92 32.28Q156.24 32.28 155.6 33.16L155.32 33Q155.48 31.4 156.34 30.26Q157.2 29.12 158.46 28.48Q159.72 27.84 160.96 27.84Q162.48 27.84 163.6 28.82Q164.72 29.8 164.72 32Q164.72 33.32 164.34 34.78Q163.96 36.24 163.46 37.68Q162.96 39.12 162.58 40.36Q162.2 41.6 162.2 42.48Q162.2 43.24 162.5 43.56Q162.8 43.88 163.16 43.88Q163.52 43.88 163.86 43.66Q164.2 43.44 164.36 43.16L164.64 43.24Q164.64 44.72 163.86 45.82Q163.08 46.92 161.92 47.54Q160.76 48.16 159.52 48.16ZM174.16 48.36Q171.68 48.36 170.04 47.68Q168.4 47 167.6 45.94Q166.8 44.88 166.8 43.8Q166.8 42.28 168.16 41.1Q169.52 39.92 171.84 39.92Q171.84 41.96 172.36 43.18Q172.88 44.4 173.7 44.92Q174.52 45.44 175.28 45.44Q176.2 45.44 176.82 44.9Q177.44 44.36 177.44 43.56Q177.44 42.44 176.28 41.6Q175.12 40.76 173.28 39.72Q172.36 39.16 171.28 38.42Q170.2 37.68 169.44 36.62Q168.68 35.56 168.68 34.08Q168.68 32.52 169.58 31.32Q170.48 30.12 171.96 29.3Q173.44 28.48 175.16 28.06Q176.88 27.64 178.52 27.64Q181.6 27.64 183.16 28.88Q184.72 30.12 184.72 31.52Q184.72 32.72 183.52 33.68Q182.32 34.64 179.84 34.64Q179.88 32.6 179 31.66Q178.12 30.72 177.12 30.72Q176.4 30.72 175.92 31.16Q175.44 31.6 175.44 32.44Q175.44 33.4 176.06 34.1Q176.68 34.8 177.62 35.34Q178.56 35.88 179.56 36.36Q180.92 37 182.12 37.72Q183.32 38.44 184.08 39.36Q184.84 40.28 184.84 41.6Q184.84 43.4 183.38 44.94Q181.92 46.48 179.48 47.42Q177.04 48.36 174.16 48.36ZM192.84 48.16Q191.56 48.16 190.42 47.58Q189.28 47 188.58 45.76Q187.88 44.52 187.88 42.6Q187.88 41.56 188.08 39.88Q188.28 38.2 188.62 36.2Q188.96 34.2 189.32 32.2Q188.52 32.24 187.78 32.36Q187.04 32.48 186.32 32.64L186.24 32.36Q187.04 31.4 187.92 30.72Q188.8 30.04 189.76 29.6Q190.28 26.96 190.64 25.02Q191 23.08 191 22.72Q191 22.04 192.06 21.6Q193.12 21.16 194.44 21.16Q195.6 21.16 196.62 21.6Q197.64 22.04 198 23.08Q197.76 23.32 197.32 24.86Q196.88 26.4 196.4 28.6Q197.16 28.64 197.96 28.68Q198.76 28.72 199.6 28.8Q199.68 29.04 199.72 29.32Q199.76 29.6 199.76 29.92Q199.76 30.52 199.58 31.22Q199.4 31.92 199.16 32.48Q198.2 32.4 197.36 32.3Q196.52 32.2 195.72 32.16Q195.4 33.88 195.14 35.6Q194.88 37.32 194.74 38.72Q194.6 40.12 194.6 40.92Q194.6 42.6 195.22 43.16Q195.84 43.72 196.72 43.72Q197.52 43.72 198.16 43.4Q198.8 43.08 199.08 42.64L199.48 42.76Q199.24 44.4 198.2 45.62Q197.16 46.84 195.72 47.5Q194.28 48.16 192.84 48.16ZM209.44 48.28Q206.52 48.28 204.6 47.1Q202.68 45.92 201.72 43.98Q200.76 42.04 200.76 39.8Q200.76 37.68 201.58 35.54Q202.4 33.4 203.98 31.64Q205.56 29.88 207.82 28.8Q210.08 27.72 212.92 27.72Q216.44 27.72 218.06 29.3Q219.68 30.88 219.68 33.12Q219.68 35.04 218.66 36.66Q217.64 38.28 215.96 39.26Q214.28 40.24 212.28 40.24Q211.24 40.24 210.16 39.92Q209.08 39.6 208.04 38.92Q208.24 41.4 209.48 42.52Q210.72 43.64 212.44 43.64Q213.64 43.64 214.84 43.18Q216.04 42.72 217.06 41.98Q218.08 41.24 218.64 40.4L218.92 40.6Q218.92 42.68 218.06 44.14Q217.2 45.6 215.8 46.52Q214.4 47.44 212.74 47.86Q211.08 48.28 209.44 48.28ZM210.36 37.48Q211.64 37.48 212.44 36.74Q213.24 36 213.64 35Q214.04 34 214.04 33.24Q214.04 32.32 213.52 31.7Q213 31.08 212.08 31.08Q211.36 31.08 210.5 31.6Q209.64 32.12 208.96 33.38Q208.28 34.64 208.08 36.88Q209.36 37.48 210.36 37.48ZM226.44 48.12Q224.96 48.12 223.76 46.94Q222.56 45.76 222.56 43.64Q222.56 42.6 222.84 41.28Q223.12 39.96 223.46 38.6Q223.8 37.24 224.08 36.04Q224.36 34.84 224.36 34.08Q224.36 33.28 224.04 32.82Q223.72 32.36 223.2 32.36Q222.52 32.36 221.72 33.16L221.48 33Q221.44 32.36 221.76 31.48Q222.08 30.6 222.74 29.78Q223.4 28.96 224.44 28.4Q225.48 27.84 226.92 27.84Q229.04 27.84 230.06 29.06Q231.08 30.28 231.08 32.04Q231.08 32.68 230.96 33.28Q231.8 32.04 233.04 30.78Q234.28 29.52 235.78 28.68Q237.28 27.84 238.88 27.84Q240.76 27.84 241.44 29.04Q242.12 30.24 242.12 32.04Q242.12 33.72 241.76 35.64Q241.4 37.56 241.04 39.34Q240.68 41.12 240.68 42.32Q240.68 43.92 241.6 43.92Q242.08 43.92 242.44 43.62Q242.8 43.32 242.92 43.04L243.2 43.16Q243.2 44.64 242.38 45.76Q241.56 46.88 240.32 47.5Q239.08 48.12 237.8 48.12Q236.24 48.12 235.04 47.04Q233.84 45.96 233.84 43.52Q233.84 42.08 234.22 40.4Q234.6 38.72 234.96 37.16Q235.32 35.6 235.32 34.6Q235.32 34 235.1 33.66Q234.88 33.32 234.32 33.32Q233.4 33.32 232.3 34.16Q231.2 35 230.42 36.4Q229.64 37.8 229.64 39.48Q229.64 40.56 229.9 41.56Q230.16 42.56 230.16 43.72Q230.16 45.88 229.04 47Q227.92 48.12 226.44 48.12ZM251.08 48.16Q249.8 48.16 248.66 47.58Q247.52 47 246.82 45.76Q246.12 44.52 246.12 42.6Q246.12 41.56 246.32 39.88Q246.52 38.2 246.86 36.2Q247.2 34.2 247.56 32.2Q246.76 32.24 246.02 32.36Q245.28 32.48 244.56 32.64L244.48 32.36Q245.28 31.4 246.16 30.72Q247.04 30.04 248 29.6Q248.52 26.96 248.88 25.02Q249.24 23.08 249.24 22.72Q249.24 22.04 250.3 21.6Q251.36 21.16 252.68 21.16Q253.84 21.16 254.86 21.6Q255.88 22.04 256.24 23.08Q256 23.32 255.56 24.86Q255.12 26.4 254.64 28.6Q255.4 28.64 256.2 28.68Q257 28.72 257.84 28.8Q257.92 29.04 257.96 29.32Q258 29.6 258 29.92Q258 30.52 257.82 31.22Q257.64 31.92 257.4 32.48Q256.44 32.4 255.6 32.3Q254.76 32.2 253.96 32.16Q253.64 33.88 253.38 35.6Q253.12 37.32 252.98 38.72Q252.84 40.12 252.84 40.92Q252.84 42.6 253.46 43.16Q254.08 43.72 254.96 43.72Q255.76 43.72 256.4 43.4Q257.04 43.08 257.32 42.64L257.72 42.76Q257.48 44.4 256.44 45.62Q255.4 46.84 253.96 47.5Q252.52 48.16 251.08 48.16Z" fill="#016F17" clip-path="url(#clip_path_1)" transform="translate(110 10)" />
  </g>
</svg>